<?xml version="1.0" encoding="utf-8"?>
<!-- Generator: Adobe Illustrator 25.2.1, SVG Export Plug-In . SVG Version: 6.00 Build 0)  -->
<svg version="1.1" id="Слой_1" xmlns="http://www.w3.org/2000/svg" xmlns:xlink="http://www.w3.org/1999/xlink" x="0px" y="0px"
	 viewBox="0 0 1080 1080" style="enable-background:new 0 0 1080 1080;" xml:space="preserve">
<g>
	<path d="M573,865h-65c-13.8,0-25-11.2-25-25V240c0-13.8,11.2-25,25-25h65c13.8,0,25,11.2,25,25v600C598,853.8,586.8,865,573,865z"
		/>
</g>
<g>
	<path d="M541,1000L541,1000l-58-90c0-13.8,11.2-25,25-25h65c13.8,0,25,11.2,25,25L541,1000z"/>
</g>
<g>
	<path d="M573,195h-65c-13.8,0-25-11.2-25-25v-65c0-13.8,11.2-25,25-25h65c13.8,0,25,11.2,25,25v65C598,183.8,586.8,195,573,195z"/>
</g>
</svg>
