<?xml version="1.0" encoding="utf-8"?>
<!-- Generator: Adobe Illustrator 25.2.1, SVG Export Plug-In . SVG Version: 6.00 Build 0)  -->
<svg version="1.1" id="Слой_1" xmlns="http://www.w3.org/2000/svg" xmlns:xlink="http://www.w3.org/1999/xlink" x="0px" y="0px"
	 viewBox="0 0 1080 1080" style="enable-background:new 0 0 1080 1080;" xml:space="preserve">
<style type="text/css">
	.st0{fill:#0000FF;stroke:#000000;stroke-width:40;stroke-linejoin:round;stroke-miterlimit:10;}
	.st1{stroke:#000000;stroke-width:40;stroke-linejoin:round;stroke-miterlimit:10;}
</style>
<g>
	<polygon class="st0" points="540.1,92 685.7,387 1011.2,434.3 775.6,663.9 831.2,988.1 540.1,835 248.9,988.1 304.5,663.9 
		69,434.3 394.5,387 	"/>
	<path class="st1" d="M540.1,94.5l144.6,293l0.3,0.5l0.6,0.1l323.3,47l-234,228l-0.4,0.4l0.1,0.6l55.2,322L540.6,834l-0.5-0.3
		l-0.5,0.3l-289.2,152l55.2-322l0.1-0.6l-0.4-0.4l-234-228l323.3-47l0.6-0.1l0.3-0.5L540.1,94.5 M540.1,92L394.5,387L69,434.3
		l235.5,229.6l-55.6,324.2L540.1,835l291.1,153.1l-55.6-324.2l235.5-229.6L685.7,387L540.1,92L540.1,92z"/>
</g>
</svg>
