<?xml version="1.0" encoding="utf-8"?>
<svg version="1.1" xmlns="http://www.w3.org/2000/svg" viewBox="0 0 512 512">
<g>
	<path d="M255.5,79.5c47.01,0,91.21,18.31,124.45,51.55s51.55,77.44,51.55,124.45s-18.31,91.21-51.55,124.45
		S302.51,431.5,255.5,431.5s-91.21-18.31-124.45-51.55S79.5,302.51,79.5,255.5s18.31-91.21,51.55-124.45S208.49,79.5,255.5,79.5
		 M255.5,29.5c-124.82,0-226,101.18-226,226s101.18,226,226,226s226-101.18,226-226S380.32,29.5,255.5,29.5L255.5,29.5z"/>
</g>
<g>
	<path d="M180.5,147.18h40.14v212.99H180.5V147.18z M200.71,321.5h51.12c13.18,0,23.39-3.17,30.62-9.52
		c7.23-6.35,10.84-15.33,10.84-26.95v-62.7c0-11.62-3.61-20.6-10.84-26.95c-7.23-6.35-17.43-9.52-30.62-9.52h-51.12v-38.67h50.24
		c17.77,0,32.93,2.98,45.48,8.94c12.55,5.96,22.09,14.65,28.64,26.07c6.54,11.43,9.81,25.2,9.81,41.31v60.35
		c0,15.33-3.15,28.71-9.45,40.14s-15.75,20.31-28.34,26.66c-12.6,6.35-28.03,9.52-46.29,9.52h-50.1V321.5z"/>
</g>
</svg>
