<?xml version="1.0" encoding="utf-8"?>
<svg version="1.1" xmlns="http://www.w3.org/2000/svg" viewBox="0 0 512 512">
<style type="text/css">
	.st1{fill:none;stroke:#000000;stroke-width:50;stroke-linecap:round;stroke-miterlimit:10;}
</style>
<g>
	<path d="M255.5,79.5c47.01,0,91.21,18.31,124.45,51.55s51.55,77.44,51.55,124.45s-18.31,91.21-51.55,124.45
		S302.51,431.5,255.5,431.5s-91.21-18.31-124.45-51.55S79.5,302.51,79.5,255.5s18.31-91.21,51.55-124.45S208.49,79.5,255.5,79.5
		M255.5,29.5c-124.82,0-226,101.18-226,226s101.18,226,226,226s226-101.18,226-226S380.32,29.5,255.5,29.5L255.5,29.5z"/>
</g>
<g>
	<line class="st1" x1="130.75" y1="252.25" x2="213" y2="334.5"/>
	<line class="st1" x1="371.5" y1="175.5" x2="213" y2="334"/>
</g>
</svg>
