<?xml version="1.0" encoding="utf-8"?>
<!-- Generator: Adobe Illustrator 25.2.1, SVG Export Plug-In . SVG Version: 6.00 Build 0)  -->
<svg version="1.1" xmlns="http://www.w3.org/2000/svg" xmlns:xlink="http://www.w3.org/1999/xlink" x="0px" y="0px"
	 viewBox="0 0 1080 1080" xml:space="preserve">
<g>
	<path d="M1022.3,190.9c-4.2-4.2-9.5-6.2-16-6.2H791.9L743.3,68.8c-6.9-17.1-19.4-31.7-37.5-43.7C687.8,13,669.5,7,651,7H429
		c-18.5,0-36.8,6-54.8,18c-18,12-30.5,26.6-37.5,43.7l-48.6,115.9H73.6c-6.5,0-11.8,2.1-16,6.2c-4.2,4.2-6.2,9.5-6.2,16v44.4
		c0,6.5,2.1,11.8,6.2,16c4.2,4.2,9.5,6.2,16,6.2h66.6v660.7c0,38.4,10.9,71.1,32.6,98.2c21.7,27.1,47.9,40.6,78.4,40.6h577.4
		c30.5,0,56.7-14,78.4-42c21.7-28,32.6-61.2,32.6-99.6V273.5h66.6c6.5,0,11.8-2.1,16-6.2c4.2-4.2,6.2-9.5,6.2-16v-44.4
		C1028.6,200.4,1026.5,195.1,1022.3,190.9z M418.5,103.5c3.2-4.2,7.2-6.7,11.8-7.6h220c4.6,0.9,8.6,3.5,11.8,7.6l33.3,81.2H384.5
		L418.5,103.5z M850.9,931.4c0,10.2-1.6,19.5-4.9,28.1c-3.2,8.6-6.6,14.8-10.1,18.7c-3.5,3.9-5.9,5.9-7.3,5.9H251.3
		c-1.4,0-3.8-2-7.3-5.9c-3.5-3.9-6.8-10.2-10.1-18.7c-3.2-8.6-4.9-17.9-4.9-28.1V273.5h621.8L850.9,931.4L850.9,931.4z"/>
</g>
<g>
	<path d="M340.1,850.9h44.4c6.5,0,11.8-2.1,16-6.2c4.2-4.2,6.2-9.5,6.2-16V428.9c0-6.5-2.1-11.8-6.2-16c-4.2-4.2-9.5-6.2-16-6.2
		h-44.4c-6.5,0-11.8,2.1-16,6.2c-4.2,4.2-6.2,9.5-6.2,16v399.8c0,6.5,2.1,11.8,6.2,16C328.3,848.8,333.7,850.9,340.1,850.9z"/>
	<path d="M517.8,850.9h44.4c6.5,0,11.8-2.1,16-6.2c4.2-4.2,6.2-9.5,6.2-16V428.9c0-6.5-2.1-11.8-6.2-16c-4.2-4.2-9.5-6.2-16-6.2
		h-44.4c-6.5,0-11.8,2.1-16,6.2c-4.2,4.2-6.2,9.5-6.2,16v399.8c0,6.5,2.1,11.8,6.2,16C506,848.8,511.3,850.9,517.8,850.9z"/>
	<path d="M695.5,850.9h44.4c6.5,0,11.8-2.1,16-6.2c4.2-4.2,6.2-9.5,6.2-16V428.9c0-6.5-2.1-11.8-6.2-16c-4.2-4.2-9.5-6.2-16-6.2
		h-44.4c-6.5,0-11.8,2.1-16,6.2c-4.2,4.2-6.2,9.5-6.2,16v399.8c0,6.5,2.1,11.8,6.2,16C683.7,848.8,689,850.9,695.5,850.9z"/>
</g>
</svg>
